<?xml version="1.0" encoding="UTF-8"?>
<svg id="Capa_1" xmlns="http://www.w3.org/2000/svg" viewBox="0 0 270.46 160.12">
  <defs>
    <style>
      .cls-1 {
        fill: #ec1b23;
      }

      .cls-2 {
        fill: #ed1d25;
      }

      .cls-3 {
        fill: #fff;
      }

      .cls-4 {
        fill: #fefdfd;
      }

      .cls-5 {
        fill: #f8d373;
      }

      .cls-6 {
        fill: #f5b101;
      }
    </style>
  </defs>
  <path class="cls-3" d="M239.99,0c2.8,1.25,5.82,1.92,8.61,3.24,15.06,7.14,23.97,23.82,21.44,40.27-.33,2.17-1.14,4.04-3.44,4.74-2.81.86-5.54-1.6-5.06-4.83.63-4.24.75-8.42-.35-12.58-3.04-11.46-10.27-18.84-21.66-22.06-2.03-.58-4.17-.88-4.77-3.33-.62-2.57.86-4.17,2.83-5.45h2.4Z"/>
  <path class="cls-5" d="M.4,100.82h-.2s-.19-.07-.19-.07v-5.28c.13-.06.26-.08.4-.06,1.2,1.8,1.21,3.61,0,5.41Z"/>
  <path class="cls-3" d="M142.82,160.12c-26.9,0-53.81,0-80.71,0-4.58,0-7.47-1.79-8.72-5.33-1.83-5.16,1.81-10.46,7.36-10.53,7.42-.09,14.85-.1,22.27.02,1.95.03,2.33-.6,2.32-2.42-.06-20.07-.06-40.14,0-60.21,0-1.72-.31-2.44-2.19-2.28-2.06.17-4.15.11-6.22,0-4.59-.25-7.94-3.69-7.9-8,.05-4.42,3.55-7.82,8.25-7.88,5.11-.06,10.22-.03,15.33-.03,5.35,0,8.62,3.27,8.62,8.68,0,23.03.03,46.06-.05,69.08,0,2.3.37,3.09,2.94,3.08,36.72-.09,73.45-.07,110.17,0,1.99,0,2.72-.31,2.69-2.57-.14-11.59-.11-23.19-.01-34.78.02-1.95-.56-2.35-2.4-2.35-30.18.06-60.35.04-90.53.05-6.19,0-9.01-2.92-8.99-9.12.04-17.19.03-34.38,0-51.57,0-5.63,2.85-8.65,8.45-8.66,28.18,0,56.36,0,84.54.02,1.42,0,2.45-.2,3.4-1.53,4.12-5.78,11.54-8.08,18.09-5.83,6.78,2.33,11.05,8.49,10.94,15.81-.09,6.78-4.78,12.87-11.48,14.94-6.62,2.04-13.98-.5-17.86-6.44-1.06-1.63-2.14-2.16-4.01-2.15-24.51.06-49.02.07-73.53-.01-2.17,0-2.8.51-2.77,2.75.12,11.43.12,22.87,0,34.3-.02,2.21.66,2.58,2.68,2.58,30.1-.07,60.19-.05,90.29-.05,5.96,0,8.92,2.98,8.93,9.01.02,17.59.02,35.18.03,52.77,0,5.36-3.33,8.59-8.98,8.59-26.98.01-53.97,0-80.95,0,0,.02,0,.04,0,.06Z"/>
  <path class="cls-3" d="M262.42,111.66c0,13.27.02,26.54-.01,39.82-.01,5.69-4.17,9.35-9.42,8.41-3.65-.65-6.29-3.74-6.36-7.61-.07-3.6-.02-7.2-.02-10.79,0-20.31-.03-40.61.05-60.92,0-2.04-.57-2.47-2.52-2.47-22.19.05-44.38.02-66.57-.06-1.54,0-2.38.48-3.24,1.76-3.92,5.86-11.24,8.38-17.9,6.31-6.78-2.1-11.27-8.12-11.38-15.22-.1-6.96,4.27-13.22,10.78-15.42,6.9-2.33,14.07-.13,18.23,5.83,1.07,1.53,2.19,1.91,3.92,1.91,25.38-.03,50.77,0,76.15.02,5.22,0,8.32,3.15,8.31,8.37-.01,13.35,0,26.7,0,40.05,0,0-.02,0-.03,0Z"/>
  <path class="cls-3" d="M147.37,117.62c7.74,0,15.49-.03,23.23.03,1.4.01,2.29-.3,3.14-1.53,4.15-5.98,11.45-8.4,18.17-6.19,6.77,2.23,11.2,8.5,11.11,15.69-.09,6.85-4.69,12.96-11.33,15.05-6.75,2.12-13.99-.38-18.07-6.44-.89-1.33-1.82-1.68-3.31-1.67-15.33.05-30.65.02-45.98.04-3.14,0-5.61-1.16-7.14-3.95-1.38-2.52-1.26-5.1.27-7.51,1.53-2.41,3.82-3.51,6.67-3.51,7.74.02,15.49,0,23.23,0Z"/>
  <path class="cls-1" d="M59.52,81.51c8.37,0,15.74,6.66,16.55,14.98.88,8.94-4.9,16.78-13.55,18.37-1.49.27-2.99.6-4.49.66-7.44.28-16.24,8.38-13.69,18.22.65,2.52,1.2,5.12,1.27,7.79.17,6.92-3.82,13.15-10.25,15.86-6.55,2.76-14,1.13-18.86-4.11-4.75-5.14-5.86-12.48-2.82-18.7,3.02-6.17,8.09-9.22,14.83-9.71,1.35-.1,2.73-.07,4.05-.32,7.45-1.4,10.88-5.55,10.82-13.42-.03-4.15-.39-8.3-.77-12.43-.87-9.42,7.89-17.42,16.92-17.17Z"/>
  <path class="cls-6" d="M.4,100.82c0-1.8,0-3.61,0-5.41,1.22-8.55,9.28-15.22,17.69-14.64,9.55.66,16.56,8.04,16.55,17.43-.01,9.14-7.12,16.76-16.15,17.32-8.87.55-16.91-5.98-18.09-14.69Z"/>
  <path class="cls-3" d="M86.78,56.35c-9.34.03-16.91-7.66-16.94-17.19-.03-9.34,7.71-17.03,17.14-17.02,9.52,0,17.06,7.68,17.03,17.34-.03,9.41-7.62,16.85-17.23,16.88Z"/>
  <path class="cls-3" d="M247.03,39.44c.29-8.35-3.29-13.48-10.91-16.05-2.04-.69-4.26-1.22-4.38-4.02-.13-2.99,2.03-4.83,5.18-4.34,2.39.38,4.58,1.35,6.64,2.58,8.51,5.07,12.27,12.64,11.73,22.44-.05.86-.24,1.75-.54,2.57-.77,2.09-2.77,3.24-4.7,2.81-2.02-.44-3.26-2.19-3.15-4.45.03-.64.11-1.27.13-1.55Z"/>
  <path class="cls-3" d="M224.26,48.17c-2.7-.03-4.74-2.14-4.78-4.93-.03-2.76,2.24-4.97,5.05-4.91,2.67.06,4.84,2.29,4.81,4.94-.03,2.8-2.25,4.94-5.08,4.91Z"/>
  <path class="cls-3" d="M161.06,65.76c2.67-.04,4.89,2.1,4.96,4.77.07,2.8-2.06,5.04-4.88,5.12-2.69.08-4.97-2.23-4.96-5.04.01-2.67,2.17-4.81,4.89-4.85Z"/>
  <path class="cls-3" d="M186.92,130.15c-2.82.02-4.92-2.14-4.89-5.02.03-2.68,2.19-4.79,4.91-4.8,2.66-.01,4.9,2.17,4.94,4.81.05,2.79-2.13,4.99-4.96,5.01Z"/>
  <path class="cls-4" d="M52.66,98.3c0-2.96.06-5.92-.03-8.87-.04-1.3.28-1.89,1.7-1.81,2.47.14,4.96-.03,7.41.25,3.92.45,5.98,2.63,6.42,6.54.31,2.79.32,5.58-.08,8.37-.47,3.27-2.21,5.2-5.37,5.97-2.91.71-5.87.48-8.82.48-1.37,0-1.24-.92-1.23-1.81,0-3.04,0-6.07,0-9.11Z"/>
  <path class="cls-4" d="M21.02,138.83c0-2.15.07-4.31-.02-6.46-.08-1.98,1.33-1.44,2.29-1.37.98.07,2.58-.81,2.55,1.37-.05,3.83-.04,7.66-.03,11.49,0,1.38.13,2.75,1.49,3.55,2.13,1.26,4.46-.13,4.56-2.94.14-3.74.18-7.51-.04-11.24-.14-2.36,1.09-2.21,2.73-2.32,1.87-.12,2.29.55,2.22,2.29-.17,4.22.05,8.47-.28,12.67-.36,4.56-3.25,6.82-7.93,6.74-4.33-.07-7.17-2.69-7.46-7.09-.15-2.22-.03-4.47-.03-6.7-.02,0-.03,0-.05,0Z"/>
  <path class="cls-3" d="M92.14,39.25c-.02,3-2.33,5.29-5.32,5.27-2.81-.02-5.05-2.32-5.1-5.26-.05-2.91,2.38-5.32,5.34-5.27,2.84.05,5.1,2.39,5.08,5.25Z"/>
  <path class="cls-2" d="M63.34,98.44c0,.79.03,1.59,0,2.38-.11,2.83-2.38,4.34-5.12,3.48-.92-.29-.68-.95-.69-1.53-.02-2.62-.08-5.25.03-7.87.04-.97-.84-2.63,1.31-2.59,1.84.04,3.87-.1,4.34,2.32.24,1.22.04,2.53.04,3.8.03,0,.06,0,.09,0Z"/>
</svg>