<?xml version="1.0"?>
<svg width="270.46" height="230.12" xmlns="http://www.w3.org/2000/svg" xmlns:svg="http://www.w3.org/2000/svg">

 <g class="layer">
  <title>Layer 1</title>
  <path class="cls-3" d="m239.99,0c2.8,1.25 5.82,1.92 8.61,3.24c15.06,7.14 23.97,23.82 21.44,40.27c-0.33,2.17 -1.14,4.04 -3.44,4.74c-2.81,0.86 -5.54,-1.6 -5.06,-4.83c0.63,-4.24 0.75,-8.42 -0.35,-12.58c-3.04,-11.46 -10.27,-18.84 -21.66,-22.06c-2.03,-0.58 -4.17,-0.88 -4.77,-3.33c-0.62,-2.57 0.86,-4.17 2.83,-5.45l2.4,0z" id="svg_1"/>
  <path d="m0.4,100.82l-0.2,0l-0.19,-0.07l0,-5.28c0.13,-0.06 0.26,-0.08 0.4,-0.06c1.2,1.8 1.21,3.61 0,5.41l-0.01,0z" fill="#f8d373" id="svg_2"/>
  <path class="cls-3" d="m142.82,160.12l-80.71,0c-4.58,0 -7.47,-1.79 -8.72,-5.33c-1.83,-5.16 1.81,-10.46 7.36,-10.53c7.42,-0.09 14.85,-0.1 22.27,0.02c1.95,0.03 2.33,-0.6 2.32,-2.42c-0.06,-20.07 -0.06,-40.14 0,-60.21c0,-1.72 -0.31,-2.44 -2.19,-2.28c-2.06,0.17 -4.15,0.11 -6.22,0c-4.59,-0.25 -7.94,-3.69 -7.9,-8c0.05,-4.42 3.55,-7.82 8.25,-7.88c5.11,-0.06 10.22,-0.03 15.33,-0.03c5.35,0 8.62,3.27 8.62,8.68c0,23.03 0.03,46.06 -0.05,69.08c0,2.3 0.37,3.09 2.94,3.08c36.72,-0.09 73.45,-0.07 110.17,0c1.99,0 2.72,-0.31 2.69,-2.57c-0.14,-11.59 -0.11,-23.19 -0.01,-34.78c0.02,-1.95 -0.56,-2.35 -2.4,-2.35c-30.18,0.06 -60.35,0.04 -90.53,0.05c-6.19,0 -9.01,-2.92 -8.99,-9.12c0.04,-17.19 0.03,-34.38 0,-51.57c0,-5.63 2.85,-8.65 8.45,-8.66c28.18,0 56.36,0 84.54,0.02c1.42,0 2.45,-0.2 3.4,-1.53c4.12,-5.78 11.54,-8.08 18.09,-5.83c6.78,2.33 11.05,8.49 10.94,15.81c-0.09,6.78 -4.78,12.87 -11.48,14.94c-6.62,2.04 -13.98,-0.5 -17.86,-6.44c-1.06,-1.63 -2.14,-2.16 -4.01,-2.15c-24.51,0.06 -49.02,0.07 -73.53,-0.01c-2.17,0 -2.8,0.51 -2.77,2.75c0.12,11.43 0.12,22.87 0,34.3c-0.02,2.21 0.66,2.58 2.68,2.58c30.1,-0.07 60.19,-0.05 90.29,-0.05c5.96,0 8.92,2.98 8.93,9.01c0.02,17.59 0.02,35.18 0.03,52.77c0,5.36 -3.33,8.59 -8.98,8.59c-26.98,0.01 -53.97,0 -80.95,0l0,0.06z" id="svg_3"/>
  <path class="cls-3" d="m262.42,111.66c0,13.27 0.02,26.54 -0.01,39.82c-0.01,5.69 -4.17,9.35 -9.42,8.41c-3.65,-0.65 -6.29,-3.74 -6.36,-7.61c-0.07,-3.6 -0.02,-7.2 -0.02,-10.79c0,-20.31 -0.03,-40.61 0.05,-60.92c0,-2.04 -0.57,-2.47 -2.52,-2.47c-22.19,0.05 -44.38,0.02 -66.57,-0.06c-1.54,0 -2.38,0.48 -3.24,1.76c-3.92,5.86 -11.24,8.38 -17.9,6.31c-6.78,-2.1 -11.27,-8.12 -11.38,-15.22c-0.1,-6.96 4.27,-13.22 10.78,-15.42c6.9,-2.33 14.07,-0.13 18.23,5.83c1.07,1.53 2.19,1.91 3.92,1.91c25.38,-0.03 50.77,0 76.15,0.02c5.22,0 8.32,3.15 8.31,8.37c-0.01,13.35 0,26.7 0,40.05l-0.03,0l0.01,0.01z" id="svg_4"/>
  <path class="cls-3" d="m147.37,117.62c7.74,0 15.49,-0.03 23.23,0.03c1.4,0.01 2.29,-0.3 3.14,-1.53c4.15,-5.98 11.45,-8.4 18.17,-6.19c6.77,2.23 11.2,8.5 11.11,15.69c-0.09,6.85 -4.69,12.96 -11.33,15.05c-6.75,2.12 -13.99,-0.38 -18.07,-6.44c-0.89,-1.33 -1.82,-1.68 -3.31,-1.67c-15.33,0.05 -30.65,0.02 -45.98,0.04c-3.14,0 -5.61,-1.16 -7.14,-3.95c-1.38,-2.52 -1.26,-5.1 0.27,-7.51s3.82,-3.51 6.67,-3.51c7.74,0.02 15.49,0 23.23,0l0.01,-0.01z" id="svg_5"/>
  <path d="m59.52,81.51c8.37,0 15.74,6.66 16.55,14.98c0.88,8.94 -4.9,16.78 -13.55,18.37c-1.49,0.27 -2.99,0.6 -4.49,0.66c-7.44,0.28 -16.24,8.38 -13.69,18.22c0.65,2.52 1.2,5.12 1.27,7.79c0.17,6.92 -3.82,13.15 -10.25,15.86c-6.55,2.76 -14,1.13 -18.86,-4.11c-4.75,-5.14 -5.86,-12.48 -2.82,-18.7c3.02,-6.17 8.09,-9.22 14.83,-9.71c1.35,-0.1 2.73,-0.07 4.05,-0.32c7.45,-1.4 10.88,-5.55 10.82,-13.42c-0.03,-4.15 -0.39,-8.3 -0.77,-12.43c-0.87,-9.42 7.89,-17.42 16.92,-17.17l-0.01,-0.02z" fill="#ec1b23" id="svg_6"/>
  <path d="m0.4,100.82l0,-5.41c1.22,-8.55 9.28,-15.22 17.69,-14.64c9.55,0.66 16.56,8.04 16.55,17.43c-0.01,9.14 -7.12,16.76 -16.15,17.32c-8.87,0.55 -16.91,-5.98 -18.09,-14.69l0,-0.01z" fill="#f5b101" id="svg_7"/>
  <path class="cls-3" d="m86.78,56.35c-9.34,0.03 -16.91,-7.66 -16.94,-17.19c-0.03,-9.34 7.71,-17.03 17.14,-17.02c9.52,0 17.06,7.68 17.03,17.34c-0.03,9.41 -7.62,16.85 -17.23,16.88l0,-0.01zm160.25,-16.91c0.29,-8.35 -3.29,-13.48 -10.91,-16.05c-2.04,-0.69 -4.26,-1.22 -4.38,-4.02c-0.13,-2.99 2.03,-4.83 5.18,-4.34c2.39,0.38 4.58,1.35 6.64,2.58c8.51,5.07 12.27,12.64 11.73,22.44c-0.05,0.86 -0.24,1.75 -0.54,2.57c-0.77,2.09 -2.77,3.24 -4.7,2.81c-2.02,-0.44 -3.26,-2.19 -3.15,-4.45c0.03,-0.64 0.11,-1.27 0.13,-1.55l0,0.01zm-22.77,8.73c-2.7,-0.03 -4.74,-2.14 -4.78,-4.93c-0.03,-2.76 2.24,-4.97 5.05,-4.91c2.67,0.06 4.84,2.29 4.81,4.94c-0.03,2.8 -2.25,4.94 -5.08,4.91l0,-0.01zm-63.2,17.59c2.67,-0.04 4.89,2.1 4.96,4.77c0.07,2.8 -2.06,5.04 -4.88,5.12c-2.69,0.08 -4.97,-2.23 -4.96,-5.04c0.01,-2.67 2.17,-4.81 4.89,-4.85l-0.01,0zm25.86,64.39c-2.82,0.02 -4.92,-2.14 -4.89,-5.02c0.03,-2.68 2.19,-4.79 4.91,-4.8c2.66,-0.01 4.9,2.17 4.94,4.81c0.05,2.79 -2.13,4.99 -4.96,5.01z" id="svg_8"/>
  <path class="cls-4" d="m52.66,98.3c0,-2.96 0.06,-5.92 -0.03,-8.87c-0.04,-1.3 0.28,-1.89 1.7,-1.81c2.47,0.14 4.96,-0.03 7.41,0.25c3.92,0.45 5.98,2.63 6.42,6.54c0.31,2.79 0.32,5.58 -0.08,8.37c-0.47,3.27 -2.21,5.2 -5.37,5.97c-2.91,0.71 -5.87,0.48 -8.82,0.48c-1.37,0 -1.24,-0.92 -1.23,-1.81l0,-9.11l0,-0.01zm-31.64,40.53c0,-2.15 0.07,-4.31 -0.02,-6.46c-0.08,-1.98 1.33,-1.44 2.29,-1.37c0.98,0.07 2.58,-0.81 2.55,1.37c-0.05,3.83 -0.04,7.66 -0.03,11.49c0,1.38 0.13,2.75 1.49,3.55c2.13,1.26 4.46,-0.13 4.56,-2.94c0.14,-3.74 0.18,-7.51 -0.04,-11.24c-0.14,-2.36 1.09,-2.21 2.73,-2.32c1.87,-0.12 2.29,0.55 2.22,2.29c-0.17,4.22 0.05,8.47 -0.28,12.67c-0.36,4.56 -3.25,6.82 -7.93,6.74c-4.33,-0.07 -7.17,-2.69 -7.46,-7.09c-0.15,-2.22 -0.03,-4.47 -0.03,-6.7l-0.05,0l0,0.01z" id="svg_9"/>
  <path class="cls-3" d="m92.14,39.25c-0.02,3 -2.33,5.29 -5.32,5.27c-2.81,-0.02 -5.05,-2.32 -5.1,-5.26c-0.05,-2.91 2.38,-5.32 5.34,-5.27c2.84,0.05 5.1,2.39 5.08,5.25l0,0.01z" id="svg_10"/>
  <path d="m63.34,98.44c0,0.79 0.03,1.59 0,2.38c-0.11,2.83 -2.38,4.34 -5.12,3.48c-0.92,-0.29 -0.68,-0.95 -0.69,-1.53c-0.02,-2.62 -0.08,-5.25 0.03,-7.87c0.04,-0.97 -0.84,-2.63 1.31,-2.59c1.84,0.04 3.87,-0.1 4.34,2.32c0.24,1.22 0.04,2.53 0.04,3.8l0.09,0l0,0.01z" fill="#ed1d25" id="svg_11-wsff"/>
 </g>
</svg>